<svg width="104" height="28" viewBox="0 0 104 28" fill="none" xmlns="http://www.w3.org/2000/svg"><script xmlns="" id="dashlane_webauthn" name="forward_webauthn_ready"/><script xmlns="" id="dashlane_webauthn_vendors"/>
<g clip-path="url(#clip0_656_482)">
<path d="M40 11.0413H41.2174V18.8853H46.6613V17.0505H43.055V14.9404H46.6613V13.1055H43.055V11.0642H46.6613V9.22936H40V11.0413ZM57.5031 11.0413H58.6975V15.078L51.0026 9.20642V18.8853H52.8402V13.2661L60.5581 18.8853V9.20642H57.5261V11.0413H57.5031ZM69.1029 15.6055H70.2974V16.9358C69.9069 17.0963 69.5164 17.1881 69.1029 17.1881C67.8166 17.1881 66.6681 16.4312 66.1628 15.2615C65.8412 14.4817 65.8412 13.5872 66.1628 12.7844C66.4843 12.0275 67.0816 11.4083 67.8625 11.0872C68.253 10.9266 68.6665 10.8349 69.1029 10.8349C69.6772 10.8349 70.2514 10.9954 70.7338 11.2936L71.6985 9.73394C70.9175 9.25229 69.9987 9 69.0799 9C68.4138 9 67.7477 9.13761 67.1275 9.38991C65.9331 9.89449 64.9683 10.8578 64.463 12.0505C63.9347 13.289 63.9347 14.711 64.463 15.9495C64.7157 16.5459 65.0832 17.0734 65.5426 17.5321C66.002 17.9908 66.5303 18.3578 67.1275 18.6101C67.7477 18.8624 68.4138 19 69.0799 19C69.3556 19 69.6542 18.9771 69.9298 18.9312C70.1825 18.8853 70.4352 18.8165 70.6649 18.7248C70.9175 18.633 71.1472 18.5183 71.3769 18.4037C71.6066 18.289 71.8593 18.1514 72.112 17.9908V13.7477H69.0799V15.6055H69.1029ZM76.3155 18.8853H81.7594V17.0505H78.1531V14.9404H81.7594V13.1055H78.1531V11.0642H81.7594V9.22936H76.3155V18.8853ZM84.9981 11.0872H87.7545V18.8853H89.5921V11.0872H92.3255V9.22936H84.9981V11.0872ZM103.604 12.0734C103.351 11.4771 102.984 10.9495 102.524 10.4908C102.065 10.0321 101.536 9.66514 100.939 9.41284C100.319 9.13761 99.6529 9 98.9868 9C98.3207 9 97.6546 9.13761 97.0573 9.38991C95.8629 9.91743 94.9211 10.8578 94.3928 12.0505C94.1172 12.6697 94.0023 13.3119 94.0023 13.9771C94.0023 14.6422 94.1402 15.3073 94.3928 15.9266C94.6455 16.5229 95.013 17.0505 95.4724 17.5092C95.9318 17.9679 96.4601 18.3349 97.0573 18.5872C97.6546 18.8624 98.3207 18.9771 98.9868 18.9771C99.6529 18.9771 100.319 18.8394 100.939 18.5872C102.134 18.0826 103.098 17.1193 103.604 15.9266C104.132 14.7339 104.132 13.3349 103.604 12.0734ZM101.904 15.2615C101.582 16.0183 100.985 16.6376 100.227 16.9358C99.4462 17.2569 98.5504 17.2569 97.7694 16.9358C97.0114 16.6147 96.4142 16.0183 96.0926 15.2615C95.771 14.4817 95.771 13.5872 96.0926 12.7844C96.4142 12.0275 97.0114 11.4312 97.7694 11.1101C98.5504 10.789 99.4462 10.789 100.227 11.1101C100.985 11.4312 101.582 12.0275 101.904 12.7844C102.226 13.5872 102.226 14.4587 101.904 15.2615Z" fill="black"/>
<path fill-rule="evenodd" clip-rule="evenodd" d="M27.6692 2.13477V4.33752C28.2692 4.7917 28.8462 5.29129 29.4 5.8136C32.4462 8.78846 34.1308 12.8533 34.1308 17.0545V17.872C34.1308 18.3943 33.0462 19.5752 30.0923 20.5971C26.8846 21.7098 22.5923 22.3456 18 22.3456C13.4077 22.3456 9.11539 21.7325 5.90769 20.6198C2.90769 19.5979 1.84615 18.417 1.84615 17.8947V17.0772C1.84615 12.0812 4.24615 7.3578 8.30769 4.33752V2.13477C3.13846 5.40484 0 11.0366 0 17.0772V17.8947C0 19.7341 2.23846 21.3692 5.83846 22.5273C7.29231 25.8428 10.6385 28.0001 14.3077 28.0001H21.6923C25.3615 28.0001 28.6846 25.8428 30.1615 22.5273C33.7385 21.3692 36 19.7341 36 17.8947V17.0772C36 11.0366 32.8615 5.40484 27.6692 2.13477ZM21.6692 26.1834H14.3077C11.9538 26.1834 9.73846 25.0707 8.35385 23.2086C11.5154 23.8898 14.7462 24.2078 18 24.185C21.2308 24.2078 24.4615 23.8671 27.6462 23.2086C26.2385 25.0707 24.0462 26.1834 21.6692 26.1834Z" fill="black"/>
<path d="M30.9923 13.0122V12.8986C30.9923 10.5596 28.9846 8.65207 26.5385 8.65207H9.46154C6.99231 8.65207 4.98461 10.5596 4.98461 12.8986V13.0122C4.98461 13.0122 4.91538 14.4428 7.52307 16.5547C10.5 18.8938 14.1923 20.1654 17.9769 20.1427C21.7846 20.1654 25.4769 18.8938 28.4308 16.5547C31.0615 14.4428 30.9923 13.0122 30.9923 13.0122ZM12.7385 15.4647C11.7231 15.4647 10.8923 14.6472 10.8923 13.648C10.8923 12.6488 11.7231 11.8313 12.7385 11.8313C13.7538 11.8313 14.5846 12.6488 14.5846 13.648C14.5846 14.6472 13.7538 15.4647 12.7385 15.4647ZM23.2385 15.4647C22.2231 15.4647 21.3923 14.6472 21.3923 13.648C21.3923 12.6488 22.2231 11.8313 23.2385 11.8313C24.2538 11.8313 25.0846 12.6488 25.0846 13.648C25.0846 14.6472 24.2538 15.4647 23.2385 15.4647ZM25.8231 0H23.9769V1.81671H12V0H10.1538V3.63341H25.8231V0Z" fill="#00A4FF"/>
</g>
<defs>
<clipPath id="clip0_656_482">
<rect width="104" height="28" fill="white"/>
</clipPath>
</defs>
</svg>